<svg width="518" height="198" viewBox="0 0 518 198" fill="none" xmlns="http://www.w3.org/2000/svg">
<path d="M18.8438 95.4844C18.8438 93.3281 19.3125 91.0781 20.25 88.7344C21.1875 86.2969 22.0312 84.2344 22.7812 82.5469C23.4375 81.2344 24.4688 79.2188 25.875 76.5C27.2812 73.6875 28.875 70.5469 30.6562 67.0781C32.4375 63.6094 34.3125 59.9531 36.2812 56.1094C38.3438 52.2656 40.2656 48.6094 42.0469 45.1406C43.8281 41.6719 45.4219 38.5781 46.8281 35.8594C48.3281 33.0469 49.4062 30.9844 50.0625 29.6719C50.1562 29.5781 50.3438 29.25 50.625 28.6875C51 28.125 51.375 27.5625 51.75 27C52.2188 26.4375 52.6406 25.9219 53.0156 25.4531C53.3906 24.8906 53.625 24.5156 53.7188 24.3281C53.8125 24.1406 53.7656 23.9531 53.5781 23.7656C53.3906 23.5781 53.2969 23.3906 53.2969 23.2031C49.2656 23.6719 45.0469 24.2812 40.6406 25.0312C36.3281 25.7813 32.0156 26.6719 27.7031 27.7031C23.4844 28.6406 19.4062 29.7656 15.4688 31.0781C11.5312 32.2969 7.96875 33.7031 4.78125 35.2969C3.75 35.2969 2.8125 35.1094 1.96875 34.7344C1.125 34.3594 0.703125 33.6094 0.703125 32.4844V32.0625C0.703125 31.9688 0.75 31.8281 0.84375 31.6406C1.03125 31.1719 1.3125 30.4688 1.6875 29.5312C2.15625 28.5 2.48438 27.9375 2.67188 27.8438L15.4688 22.3594L101.109 0.5625C102.141 3.1875 102.047 5.29687 100.828 6.89062C99.7031 8.39062 97.875 9.65625 95.3438 10.6875C92.8125 11.625 89.8594 12.4687 86.4844 13.2188C83.2031 13.875 79.875 14.7187 76.5 15.75C73.2188 16.6875 70.1719 18 67.3594 19.6875C64.5469 21.2813 62.4375 23.4375 61.0312 26.1562C54.9375 38.25 48.6562 50.2969 42.1875 62.2969C35.8125 74.2969 29.9531 86.5312 24.6094 99C24.5156 99 24.3281 99 24.0469 99C23.8594 99.0938 23.7188 99.1406 23.625 99.1406C22.4062 99.1406 21.2812 98.8594 20.25 98.2969C19.3125 97.7344 18.8438 96.7969 18.8438 95.4844ZM59.6025 91.9688C59.6025 90.5625 60.0244 88.5938 60.8681 86.0625C61.7119 83.4375 62.79 80.625 64.1025 77.625C65.5088 74.625 67.0556 71.5781 68.7431 68.4844C70.5244 65.3906 72.3056 62.5781 74.0869 60.0469C75.8681 57.5156 77.5556 55.4531 79.1494 53.8594C80.7431 52.2656 82.1494 51.4688 83.3681 51.4688C85.9931 51.4688 87.3056 52.7344 87.3056 55.2656C87.3056 56.3906 87.0713 57.3281 86.6025 58.0781C86.2275 58.8281 85.7588 59.5312 85.1963 60.1875C84.6338 60.8438 84.0244 61.5 83.3681 62.1562C82.7119 62.7188 82.1494 63.4219 81.6806 64.2656C80.8369 65.6719 79.8056 67.5938 78.5869 70.0312C77.3681 72.4688 76.1494 74.8594 74.9306 77.2031C73.8056 79.4531 72.8213 81.4688 71.9775 83.25C71.1338 85.0312 70.7119 86.0156 70.7119 86.2031V88.0312C74.3681 87.375 77.8838 85.8281 81.2588 83.3906C84.6338 80.8594 87.8213 77.9062 90.8213 74.5312C93.915 71.1562 96.8213 67.6406 99.54 63.9844C102.353 60.2344 104.978 56.8125 107.415 53.7188C109.853 50.5312 112.149 47.9062 114.306 45.8438C116.462 43.7812 118.478 42.75 120.353 42.75C120.353 46.2188 119.649 49.3594 118.243 52.1719C116.837 54.9844 115.29 57.75 113.603 60.4688C112.009 63.1875 110.509 66 109.103 68.9062C107.696 71.7188 106.993 74.9062 106.993 78.4688C106.993 79.9688 107.884 81.3281 109.665 82.5469C111.54 83.6719 113.649 84.6562 115.993 85.5C118.431 86.25 120.774 86.8594 123.024 87.3281C125.274 87.7969 126.821 88.0781 127.665 88.1719V91.8281C125.509 91.9219 122.837 91.9688 119.649 91.9688C116.462 91.875 113.274 91.5 110.087 90.8438C106.899 90.1875 103.993 89.1094 101.368 87.6094C98.8369 86.0156 97.1494 83.7188 96.3056 80.7188C93.8681 82.3125 91.5244 84.1875 89.2744 86.3438C87.0244 88.5 84.6806 90.5156 82.2431 92.3906C79.8994 94.2656 77.415 95.8594 74.79 97.1719C72.165 98.4844 69.3056 99.1406 66.2119 99.1406C64.3369 99.1406 62.7431 98.3438 61.4306 96.75C60.2119 95.1562 59.6025 93.5625 59.6025 91.9688ZM158.04 88.1719C158.04 85.3594 158.603 82.7812 159.728 80.4375C160.946 78 162.259 75.7031 163.665 73.5469C165.071 71.3906 166.337 69.2344 167.462 67.0781C168.681 64.9219 169.29 62.625 169.29 60.1875C169.29 59.625 169.243 58.9688 169.149 58.2188C169.149 57.375 169.056 56.5781 168.868 55.8281C168.774 55.0781 168.493 54.4688 168.024 54C167.649 53.4375 167.134 53.1562 166.478 53.1562C166.384 53.1562 166.196 53.2031 165.915 53.2969C165.728 53.2969 165.634 53.3438 165.634 53.4375C164.321 55.2188 162.728 57.2344 160.853 59.4844C159.071 61.6406 157.149 63.7969 155.087 65.9531C153.024 68.1094 151.009 70.1719 149.04 72.1406C147.071 74.1094 145.29 75.75 143.696 77.0625C142.571 78.0938 141.024 79.5 139.056 81.2812C137.181 83.0625 135.259 84.8438 133.29 86.625C131.415 88.3125 129.728 89.8125 128.228 91.125C126.821 92.4375 126.024 93.0938 125.837 93.0938L119.368 87.6094C120.212 87.6094 121.056 87.4219 121.899 87.0469C122.649 86.6719 123.399 86.25 124.149 85.7812C129.774 82.0312 134.837 77.7188 139.337 72.8438C143.931 67.9688 148.431 62.7188 152.837 57.0938C153.024 56.8125 153.493 56.0156 154.243 54.7031C155.087 53.2969 155.978 51.75 156.915 50.0625C157.853 48.2812 158.79 46.5469 159.728 44.8594C160.665 43.0781 161.368 41.6719 161.837 40.6406C162.399 39.4219 162.728 38.4375 162.821 37.6875C163.009 36.9375 163.149 36.375 163.243 36C163.431 35.5312 163.712 35.2031 164.087 35.0156C164.462 34.8281 165.259 34.7344 166.478 34.7344C166.665 34.7344 167.087 34.7812 167.743 34.875C168.493 34.9688 168.962 35.0625 169.149 35.1562C170.368 37.6875 171.446 39.9375 172.384 41.9062C173.321 43.875 174.118 45.75 174.774 47.5312C175.431 49.2188 175.899 50.9531 176.181 52.7344C176.556 54.5156 176.743 56.4844 176.743 58.6406C175.524 61.7344 174.165 64.9219 172.665 68.2031C171.165 71.3906 169.899 74.4375 168.868 77.3438C167.837 80.25 167.181 82.875 166.899 85.2188C166.712 87.5625 167.228 89.4375 168.446 90.8438C169.759 92.1562 171.915 92.8594 174.915 92.9531C178.009 93.0469 182.368 92.25 187.993 90.5625C189.493 91.3125 189.634 92.25 188.415 93.375C187.196 94.4062 185.321 95.3906 182.79 96.3281C180.353 97.2656 177.634 98.0625 174.634 98.7188C171.728 99.2812 169.29 99.4219 167.321 99.1406C165.54 99.1406 164.04 98.8594 162.821 98.2969C161.696 97.6406 160.759 96.7969 160.009 95.7656C159.353 94.7344 158.837 93.5625 158.462 92.25C158.181 90.9375 158.04 89.5781 158.04 88.1719ZM181.806 184.922C181.806 179.766 182.368 174.562 183.493 169.312C184.618 164.156 186.024 159 187.712 153.844C189.493 148.688 191.462 143.625 193.618 138.656C195.868 133.781 198.071 129.094 200.227 124.594V120.938H192.634C192.634 119.156 193.056 117.703 193.899 116.578C194.743 115.547 195.821 114.703 197.134 114.047C198.446 113.391 199.852 112.875 201.352 112.5C202.946 112.219 204.399 111.984 205.712 111.797L214.852 95.3438V93.9375C213.259 93.9375 211.665 94.2188 210.071 94.7812C208.571 95.3438 207.024 95.9531 205.431 96.6094C203.931 97.1719 202.337 97.7344 200.649 98.2969C199.056 98.8594 197.368 99.1406 195.587 99.1406C191.368 99.1406 188.321 98.1562 186.446 96.1875C184.571 94.125 183.634 91.0781 183.634 87.0469C184.196 83.3906 185.696 79.5469 188.134 75.5156C190.571 71.4844 193.571 67.7344 197.134 64.2656C200.79 60.7031 204.727 57.7031 208.946 55.2656C213.259 52.8281 217.477 51.375 221.602 50.9062C225.821 50.4375 229.712 51.2344 233.274 53.2969C236.931 55.2656 239.931 59.0156 242.274 64.5469C242.274 66.7031 241.899 68.8125 241.149 70.875C240.399 72.9375 239.415 74.9531 238.196 76.9219C237.071 78.7969 235.712 80.5781 234.118 82.2656C232.618 83.8594 231.024 85.2188 229.337 86.3438L214.852 115.453C214.852 115.547 214.806 115.688 214.712 115.875C214.712 116.062 214.712 116.25 214.712 116.438C214.712 117.656 214.993 118.828 215.556 119.953C216.212 121.078 216.915 122.203 217.665 123.328C218.509 124.453 219.306 125.578 220.056 126.703C220.899 127.828 221.556 128.953 222.024 130.078C224.181 136.266 225.024 142.453 224.556 148.641C224.087 154.828 222.634 160.781 220.196 166.5C217.759 172.312 214.477 177.703 210.352 182.672C206.227 187.641 201.634 191.953 196.571 195.609C195.634 196.453 194.743 196.969 193.899 197.156C193.056 197.438 192.118 197.578 191.087 197.578C189.306 197.578 187.806 197.203 186.587 196.453C185.462 195.703 184.524 194.719 183.774 193.5C183.118 192.281 182.602 190.922 182.227 189.422C181.946 187.922 181.806 186.422 181.806 184.922ZM191.087 187.312C193.712 187.312 196.196 186.516 198.54 184.922C200.884 183.328 203.087 181.219 205.149 178.594C207.212 175.969 209.04 173.016 210.634 169.734C212.321 166.547 213.727 163.266 214.852 159.891C216.071 156.609 216.962 153.469 217.524 150.469C218.181 147.469 218.509 144.891 218.509 142.734C218.509 139.172 217.665 135.797 215.977 132.609C214.29 129.516 212.087 126.844 209.368 124.594L191.087 187.312ZM192.774 85.5C192.774 87.2812 193.102 88.5 193.759 89.1562C194.415 89.8125 195.681 90.1406 197.556 90.1406C199.712 90.1406 202.665 89.3438 206.415 87.75C210.259 86.0625 214.009 84 217.665 81.5625C221.415 79.0312 224.649 76.2656 227.368 73.2656C230.087 70.2656 231.446 67.4062 231.446 64.6875C231.446 61.9688 230.743 60.0469 229.337 58.9219C228.024 57.7031 225.868 57.0938 222.868 57.0938C221.368 57.0938 219.587 57.5625 217.524 58.5C215.556 59.4375 213.446 60.7031 211.196 62.2969C208.946 63.8906 206.696 65.7188 204.446 67.7812C202.29 69.75 200.321 71.8125 198.54 73.9688C196.852 76.0312 195.446 78.0938 194.321 80.1562C193.29 82.125 192.774 83.9062 192.774 85.5ZM248.321 91.9688C248.321 90.5625 248.743 88.5938 249.587 86.0625C250.431 83.4375 251.509 80.625 252.821 77.625C254.227 74.625 255.774 71.5781 257.462 68.4844C259.243 65.3906 261.024 62.5781 262.806 60.0469C264.587 57.5156 266.274 55.4531 267.868 53.8594C269.462 52.2656 270.868 51.4688 272.087 51.4688C274.712 51.4688 276.024 52.7344 276.024 55.2656C276.024 56.3906 275.79 57.3281 275.321 58.0781C274.946 58.8281 274.477 59.5312 273.915 60.1875C273.352 60.8438 272.743 61.5 272.087 62.1562C271.431 62.7188 270.868 63.4219 270.399 64.2656C269.556 65.6719 268.524 67.5938 267.306 70.0312C266.087 72.4688 264.868 74.8594 263.649 77.2031C262.524 79.4531 261.54 81.4688 260.696 83.25C259.852 85.0312 259.431 86.0156 259.431 86.2031V88.0312C263.087 87.375 266.602 85.8281 269.977 83.3906C273.352 80.8594 276.54 77.9062 279.54 74.5312C282.634 71.1562 285.54 67.6406 288.259 63.9844C291.071 60.2344 293.696 56.8125 296.134 53.7188C298.571 50.5312 300.868 47.9062 303.024 45.8438C305.181 43.7812 307.196 42.75 309.071 42.75C309.071 46.2188 308.368 49.3594 306.962 52.1719C305.556 54.9844 304.009 57.75 302.321 60.4688C300.727 63.1875 299.227 66 297.821 68.9062C296.415 71.7188 295.712 74.9062 295.712 78.4688C295.712 79.9688 296.602 81.3281 298.384 82.5469C300.259 83.6719 302.368 84.6562 304.712 85.5C307.149 86.25 309.493 86.8594 311.743 87.3281C313.993 87.7969 315.54 88.0781 316.384 88.1719V91.8281C314.227 91.9219 311.556 91.9688 308.368 91.9688C305.181 91.875 301.993 91.5 298.806 90.8438C295.618 90.1875 292.712 89.1094 290.087 87.6094C287.556 86.0156 285.868 83.7188 285.024 80.7188C282.587 82.3125 280.243 84.1875 277.993 86.3438C275.743 88.5 273.399 90.5156 270.962 92.3906C268.618 94.2656 266.134 95.8594 263.509 97.1719C260.884 98.4844 258.024 99.1406 254.931 99.1406C253.056 99.1406 251.462 98.3438 250.149 96.75C248.931 95.1562 248.321 93.5625 248.321 91.9688ZM316.665 87.1875C316.665 86.8125 316.665 86.0625 316.665 84.9375C316.759 83.7188 316.806 82.9219 316.806 82.5469C319.806 75.7031 323.649 69.375 328.337 63.5625C333.024 57.75 338.321 52.5938 344.228 48.0938C344.415 48.0938 344.696 48.0469 345.071 47.9531C345.54 47.7656 345.868 47.6719 346.056 47.6719C348.587 47.6719 350.649 48.2344 352.243 49.3594C353.931 50.3906 355.243 51.7969 356.181 53.5781C357.212 55.2656 357.915 57.1875 358.29 59.3438C358.665 61.4062 358.853 63.4219 358.853 65.3906C358.853 69.0469 358.009 72.8906 356.321 76.9219C354.634 80.8594 352.337 84.5156 349.431 87.8906C346.618 91.1719 343.384 93.8906 339.728 96.0469C336.071 98.1094 332.274 99.1406 328.337 99.1406C324.399 99.1406 321.446 98.1094 319.478 96.0469C317.603 93.8906 316.665 90.9375 316.665 87.1875ZM327.634 85.5C327.634 86.5312 328.056 87.2344 328.899 87.6094C329.743 87.9844 330.587 88.1719 331.431 88.1719C333.774 88.1719 336.024 87.5625 338.181 86.3438C340.431 85.0312 342.399 83.4375 344.087 81.5625C345.868 79.5938 347.274 77.4375 348.306 75.0938C349.337 72.75 349.853 70.5 349.853 68.3438C349.853 67.3125 349.759 66.1875 349.571 64.9688C349.478 63.6562 349.196 62.5312 348.728 61.5938C348.259 60.5625 347.509 59.7656 346.478 59.2031C345.54 58.6406 344.181 58.5469 342.399 58.9219C341.087 59.2031 339.587 60.4219 337.899 62.5781C336.212 64.7344 334.571 67.2656 332.978 70.1719C331.478 72.9844 330.212 75.8438 329.181 78.75C328.149 81.5625 327.634 83.8125 327.634 85.5ZM363.071 89.8594C363.071 88.5469 363.212 87.4219 363.493 86.4844C363.774 85.4531 364.29 84.1406 365.04 82.5469C365.696 81.6094 366.868 79.8281 368.556 77.2031C370.337 74.5781 372.165 71.8125 374.04 68.9062C376.009 66 377.837 63.2812 379.524 60.75C381.306 58.125 382.524 56.2969 383.181 55.2656C384.024 54.0469 384.681 53.3906 385.149 53.2969C385.618 53.2031 386.509 53.1562 387.821 53.1562C388.665 53.1562 389.556 53.2031 390.493 53.2969C391.524 53.3906 392.181 54.0469 392.462 55.2656C391.149 58.4531 389.368 61.5 387.118 64.4062C384.962 67.2188 382.806 70.0312 380.649 72.8438C378.587 75.6562 376.759 78.5625 375.165 81.5625C373.571 84.4688 372.774 87.6094 372.774 90.9844C373.149 90.9844 373.712 91.0312 374.462 91.125C375.306 91.2188 376.196 91.3125 377.134 91.4062C378.071 91.5 378.915 91.5938 379.665 91.6875C380.509 91.7812 381.118 91.7812 381.493 91.6875C382.056 91.5938 382.993 91.4062 384.306 91.125C385.712 90.75 387.165 90.375 388.665 90C390.259 89.625 391.759 89.25 393.165 88.875C394.571 88.5 395.556 88.2188 396.118 88.0312C396.118 88.2188 396.118 88.5469 396.118 89.0156C396.212 89.3906 396.259 89.6719 396.259 89.8594C396.259 91.7344 395.368 93.2812 393.587 94.5C391.899 95.7188 389.884 96.7031 387.54 97.4531C385.29 98.1094 382.946 98.5781 380.509 98.8594C378.165 99.0469 376.337 99.1406 375.024 99.1406C373.618 99.1406 372.165 99 370.665 98.7188C369.259 98.3438 367.993 97.7812 366.868 97.0312C365.743 96.2812 364.806 95.3438 364.056 94.2188C363.399 93 363.071 91.5469 363.071 89.8594ZM403.993 7.45312C405.212 7.45312 406.337 7.5 407.368 7.59375C408.399 7.6875 409.29 7.92188 410.04 8.29688C410.79 8.67187 411.399 9.23437 411.868 9.98438C412.337 10.7344 412.571 11.7656 412.571 13.0781C412.571 13.6406 412.571 14.25 412.571 14.9062C412.571 15.5625 412.478 16.2188 412.29 16.875C412.196 17.4375 411.962 17.9531 411.587 18.4219C411.212 18.7969 410.603 18.9844 409.759 18.9844C408.446 18.9844 407.368 18.5156 406.524 17.5781C405.774 16.6406 405.212 15.5625 404.837 14.3438C404.462 13.0312 404.228 11.7188 404.134 10.4062C404.04 9.09375 403.993 8.10937 403.993 7.45312ZM397.384 83.3906C397.384 81.6094 397.618 80.0625 398.087 78.75C398.649 77.4375 400.009 76.7812 402.165 76.7812C402.353 76.7812 402.774 76.8281 403.431 76.9219C404.181 76.9219 404.696 76.9688 404.978 77.0625C404.884 81.4688 405.587 84.7969 407.087 87.0469C408.587 89.2031 411.399 90.2812 415.524 90.2812C418.899 90.2812 422.228 89.7656 425.509 88.7344C428.79 87.7031 431.743 86.2031 434.368 84.2344C437.087 82.1719 439.243 79.6875 440.837 76.7812C442.524 73.875 443.368 70.5938 443.368 66.9375C443.368 64.6875 442.571 63.0938 440.978 62.1562C439.478 61.2188 437.79 60.4688 435.915 59.9062C434.04 59.3438 432.306 58.7344 430.712 58.0781C429.212 57.3281 428.462 56.0625 428.462 54.2812C428.462 52.125 429.774 50.0625 432.399 48.0938C435.024 46.125 438.118 44.3906 441.681 42.8906C445.243 41.2969 448.759 40.0781 452.228 39.2344C455.79 38.2969 458.509 37.8281 460.384 37.8281C460.384 40.5469 459.774 42.4688 458.556 43.5938C457.431 44.7188 456.024 45.6094 454.337 46.2656C452.649 46.9219 450.915 47.5781 449.134 48.2344C447.446 48.7969 446.04 49.9219 444.915 51.6094C446.415 52.8281 447.634 53.9531 448.571 54.9844C449.603 55.9219 450.399 56.9531 450.962 58.0781C451.524 59.2031 451.899 60.4688 452.087 61.875C452.274 63.1875 452.368 64.7812 452.368 66.6562C452.368 71.5312 451.29 75.9844 449.134 80.0156C447.071 83.9531 444.353 87.375 440.978 90.2812C437.603 93.0938 433.759 95.2969 429.446 96.8906C425.134 98.3906 420.728 99.1406 416.228 99.1406C413.79 99.1406 411.399 98.8594 409.056 98.2969C406.806 97.6406 404.79 96.6562 403.009 95.3438C401.321 94.0312 399.962 92.3906 398.931 90.4219C397.899 88.4531 397.384 86.1094 397.384 83.3906ZM465.306 91.6875C463.712 88.125 463.009 84.6562 463.196 81.2812C463.384 77.8125 464.134 74.5781 465.446 71.5781C466.853 68.4844 468.634 65.7188 470.79 63.2812C473.04 60.75 475.431 58.5938 477.962 56.8125C480.493 54.9375 483.024 53.5312 485.556 52.5938C488.181 51.6562 490.478 51.2812 492.446 51.4688C494.415 51.5625 495.962 52.2656 497.087 53.5781C498.212 54.8906 498.587 56.9062 498.212 59.625C498.212 63.2812 497.04 66.4688 494.696 69.1875C492.446 71.9062 489.915 74.3438 487.103 76.5C484.384 78.6562 481.853 80.625 479.509 82.4062C477.259 84.0938 476.134 85.6875 476.134 87.1875C476.134 88.0312 476.603 88.6875 477.54 89.1562C478.571 89.625 479.743 90 481.056 90.2812C482.368 90.4688 483.681 90.6094 484.993 90.7031C486.306 90.7969 487.243 90.8906 487.806 90.9844C496.618 89.1094 503.228 87.9844 507.634 87.6094C512.04 87.1406 514.806 87.1875 515.931 87.75C517.056 88.2188 516.821 89.0156 515.228 90.1406C513.728 91.1719 511.384 92.2969 508.196 93.5156C505.009 94.6406 501.306 95.6719 497.087 96.6094C492.868 97.5469 488.696 98.1094 484.571 98.2969C480.446 98.3906 476.603 97.9688 473.04 97.0312C469.571 96.0938 466.993 94.3125 465.306 91.6875ZM489.915 59.625C488.04 59.625 486.259 60.1406 484.571 61.1719C482.884 62.2031 481.337 63.5156 479.931 65.1094C478.618 66.6094 477.493 68.2969 476.556 70.1719C475.618 71.9531 474.915 73.6406 474.446 75.2344C474.634 75.3281 474.774 75.375 474.868 75.375H475.29C476.603 75.375 478.103 74.8125 479.79 73.6875C481.478 72.5625 483.071 71.2031 484.571 69.6094C486.071 67.9219 487.337 66.1875 488.368 64.4062C489.399 62.625 489.915 61.0312 489.915 59.625Z" fill="#90EADA"/>
</svg>
