<svg width="379" height="69" viewBox="0 0 379 69" fill="none" xmlns="http://www.w3.org/2000/svg">
<path d="M15.0186 56V8.624H0.258563V3.44H35.3946V8.624H20.7066V56H15.0186ZM60.9264 56.72C56.4624 56.72 52.8864 55.376 50.1984 52.688C47.5584 50 46.2384 46.352 46.2384 41.744V16.4H51.9264V41.744C51.9264 44.864 52.7184 47.312 54.3024 49.088C55.9344 50.816 58.1424 51.68 60.9264 51.68C63.7584 51.68 65.9904 50.816 67.6224 49.088C69.2544 47.312 70.0704 44.864 70.0704 41.744V16.4H75.7584V41.744C75.7584 46.352 74.4144 50 71.7264 52.688C69.0384 55.376 65.4384 56.72 60.9264 56.72ZM90.7783 56V16.4H96.4663V23.744H97.6903L96.2503 25.976C96.2503 22.76 97.2103 20.24 99.1303 18.416C101.098 16.592 103.762 15.68 107.122 15.68C111.298 15.68 114.61 17 117.058 19.64C119.506 22.232 120.73 25.736 120.73 30.152V32.888H114.898V30.584C114.898 27.416 114.082 24.968 112.45 23.24C110.866 21.512 108.562 20.648 105.538 20.648C102.658 20.648 100.426 21.512 98.8423 23.24C97.2583 24.92 96.4663 27.368 96.4663 30.584V56H90.7783ZM156.27 68.96V57.656L156.342 49.016H154.974L156.486 46.64C156.486 49.712 155.454 52.16 153.39 53.984C151.374 55.808 148.71 56.72 145.398 56.72C141.414 56.72 138.246 55.4 135.894 52.76C133.59 50.12 132.438 46.544 132.438 42.032V30.296C132.438 25.784 133.614 22.232 135.966 19.64C138.318 17 141.462 15.68 145.398 15.68C148.71 15.68 151.374 16.592 153.39 18.416C155.454 20.192 156.486 22.64 156.486 25.76L154.758 23.384H156.27V16.4H161.958V68.96H156.27ZM147.198 51.752C150.03 51.752 152.238 50.888 153.822 49.16C155.454 47.384 156.27 44.936 156.27 41.816V30.584C156.27 27.464 155.454 25.04 153.822 23.312C152.238 21.536 150.03 20.648 147.198 20.648C144.318 20.648 142.086 21.512 140.502 23.24C138.918 24.92 138.126 27.368 138.126 30.584V41.816C138.126 44.984 138.918 47.432 140.502 49.16C142.086 50.888 144.318 51.752 147.198 51.752ZM190.442 56.72C185.978 56.72 182.402 55.376 179.714 52.688C177.074 50 175.754 46.352 175.754 41.744V16.4H181.442V41.744C181.442 44.864 182.234 47.312 183.818 49.088C185.45 50.816 187.658 51.68 190.442 51.68C193.274 51.68 195.506 50.816 197.138 49.088C198.77 47.312 199.586 44.864 199.586 41.744V16.4H205.274V41.744C205.274 46.352 203.93 50 201.242 52.688C198.554 55.376 194.954 56.72 190.442 56.72ZM233.686 56.648C230.614 56.648 227.926 56.048 225.622 54.848C223.366 53.6 221.614 51.872 220.366 49.664C219.166 47.408 218.566 44.744 218.566 41.672V30.728C218.566 27.656 219.166 25.016 220.366 22.808C221.614 20.552 223.366 18.824 225.622 17.624C227.926 16.376 230.614 15.752 233.686 15.752C236.806 15.752 239.494 16.376 241.75 17.624C244.006 18.824 245.734 20.528 246.934 22.736C248.182 24.944 248.806 27.584 248.806 30.656V41.672C248.806 44.744 248.182 47.408 246.934 49.664C245.734 51.872 244.006 53.6 241.75 54.848C239.494 56.048 236.806 56.648 233.686 56.648ZM233.686 51.536C236.662 51.536 238.966 50.696 240.598 49.016C242.23 47.336 243.046 44.888 243.046 41.672V30.728C243.046 27.512 242.206 25.064 240.526 23.384C238.894 21.704 236.614 20.864 233.686 20.864C230.758 20.864 228.454 21.704 226.774 23.384C225.142 25.064 224.326 27.512 224.326 30.728V41.672C224.326 44.888 225.142 47.336 226.774 49.016C228.454 50.696 230.758 51.536 233.686 51.536ZM261.594 56V50.816H275.706V21.584H263.106V16.4H281.466V50.816H294.858V56H261.594ZM277.938 9.128C276.45 9.128 275.25 8.744 274.338 7.976C273.474 7.208 273.042 6.152 273.042 4.808C273.042 3.416 273.474 2.312 274.338 1.496C275.25 0.679997 276.45 0.271996 277.938 0.271996C279.426 0.271996 280.602 0.679997 281.466 1.496C282.378 2.312 282.834 3.416 282.834 4.808C282.834 6.104 282.378 7.16 281.466 7.976C280.602 8.744 279.426 9.128 277.938 9.128ZM318.59 56.648C315.998 56.648 313.67 56.216 311.606 55.352C309.59 54.488 307.982 53.264 306.782 51.68C305.63 50.096 305.03 48.248 304.982 46.136H310.814C310.91 47.768 311.678 49.088 313.118 50.096C314.606 51.056 316.478 51.536 318.734 51.536H322.19C324.782 51.536 326.726 50.984 328.022 49.88C329.366 48.728 330.038 47.216 330.038 45.344C330.038 43.568 329.438 42.128 328.238 41.024C327.038 39.92 325.358 39.2 323.198 38.864L317.222 37.928C313.43 37.304 310.598 36.08 308.726 34.256C306.854 32.432 305.918 29.96 305.918 26.84C305.918 23.336 307.07 20.624 309.374 18.704C311.726 16.736 315.014 15.752 319.238 15.752H322.046C325.934 15.752 329.078 16.664 331.478 18.488C333.878 20.264 335.126 22.64 335.222 25.616H329.39C329.294 24.176 328.574 23.024 327.23 22.16C325.934 21.296 324.158 20.864 321.902 20.864H319.094C316.742 20.864 314.894 21.392 313.55 22.448C312.206 23.504 311.534 24.968 311.534 26.84C311.534 30.008 313.718 31.928 318.086 32.6L323.99 33.536C327.926 34.16 330.854 35.408 332.774 37.28C334.694 39.104 335.654 41.672 335.654 44.984C335.654 48.584 334.502 51.44 332.198 53.552C329.894 55.616 326.534 56.648 322.118 56.648H318.59ZM363.202 56.72C360.13 56.72 357.466 56.12 355.21 54.92C352.954 53.672 351.202 51.92 349.954 49.664C348.706 47.408 348.082 44.792 348.082 41.816V30.584C348.082 27.56 348.706 24.944 349.954 22.736C351.202 20.48 352.954 18.752 355.21 17.552C357.466 16.304 360.13 15.68 363.202 15.68C366.274 15.68 368.938 16.304 371.194 17.552C373.45 18.752 375.202 20.48 376.45 22.736C377.698 24.944 378.322 27.56 378.322 30.584V37.568H353.698V41.816C353.698 45.032 354.514 47.528 356.146 49.304C357.826 51.032 360.178 51.896 363.202 51.896C365.746 51.896 367.81 51.392 369.394 50.384C371.026 49.376 372.058 47.912 372.49 45.992H378.178C377.65 49.304 376.042 51.92 373.354 53.84C370.666 55.76 367.282 56.72 363.202 56.72ZM372.706 33.752V30.584C372.706 27.368 371.89 24.896 370.258 23.168C368.626 21.392 366.274 20.504 363.202 20.504C360.178 20.504 357.826 21.392 356.146 23.168C354.514 24.896 353.698 27.368 353.698 30.584V33.104H373.282L372.706 33.752Z" fill="#67D1D1"/>
</svg>
